<!DOCTYPE svg PUBLIC "-//W3C//DTD SVG 1.1//EN" "http://www.w3.org/Graphics/SVG/1.1/DTD/svg11.dtd">
<!-- Uploaded to: SVG Repo, www.svgrepo.com, Transformed by: SVG Repo Mixer Tools -->
<svg height="800px" width="800px" version="1.1" id="Capa_1" xmlns="http://www.w3.org/2000/svg" xmlns:xlink="http://www.w3.org/1999/xlink" viewBox="0 0 358.012 358.012" xml:space="preserve" fill="#000000">
<g id="SVGRepo_bgCarrier" stroke-width="0"/>
<g id="SVGRepo_tracerCarrier" stroke-linecap="round" stroke-linejoin="round"/>
<g id="SVGRepo_iconCarrier"> <g> <g> <path style="fill:#9ca3af;" d="M99.814,119.469c2.679,31.296,22.638,57.718,50.307,69.61c2.411-17.96,9.738-34.375,20.717-47.747 c-14.989-14.249-35.199-23.062-57.467-23.062C108.746,118.269,104.235,118.747,99.814,119.469z"/> <path style="fill:#9ca3af;" d="M266.039,121.151c-6.844-1.82-13.992-2.882-21.397-2.882c-22.268,0-42.478,8.813-57.467,23.062 c11.552,14.07,19.166,31.487,21.147,50.551C239.325,181.995,262.512,154.47,266.039,121.151z"/> <path style="fill:#9ca3af;" d="M149.19,201.477c-33.027-12.56-57.377-42.86-61.154-79.258 c-33.707,10.758-58.201,42.359-58.201,79.586c0,46.064,37.472,83.536,83.536,83.536c22.268,0,42.478-8.813,57.467-23.062 c-13.527-16.48-21.666-37.544-21.666-60.474C149.172,201.698,149.19,201.591,149.19,201.477z"/> <path style="fill:#9ca3af;" d="M196.543,194.639c-1.426-16.654-7.757-31.899-17.537-44.334 c-9.452,12.023-15.729,26.654-17.417,42.657c6.844,1.82,13.992,2.882,21.397,2.882 C187.61,195.839,192.121,195.367,196.543,194.639z"/> <path style="fill:#9ca3af;" d="M182.986,207.772c-7.476,0-14.72-0.955-21.707-2.584c0.728,18.115,7.214,34.751,17.728,48.123 c10.227-13.008,16.636-29.094,17.656-46.631C192.181,207.325,187.64,207.772,182.986,207.772z"/> <path style="fill:#9ca3af;" d="M179.006,0C80.141,0,0,80.141,0,179.006s80.141,179.006,179.006,179.006 s179.006-80.141,179.006-179.006S277.871,0,179.006,0z M244.642,297.275c-25.431,0-48.511-10.054-65.636-26.32 c-17.125,16.266-40.205,26.32-65.636,26.32c-52.64,0-95.47-42.83-95.47-95.47c0-43.713,29.572-80.571,69.735-91.848 c1.259-51.554,43.498-93.125,95.351-93.125c52.64,0,95.47,42.83,95.47,95.47c0,0.107-0.018,0.215-0.018,0.328 c35.986,13.688,61.674,48.445,61.674,89.175C340.112,254.445,297.281,297.275,244.642,297.275z"/> <path style="fill:#9ca3af;" d="M179.006,132.655c17.125-16.266,40.205-26.32,65.636-26.32c7.476,0,14.72,0.955,21.707,2.584 c-1.796-44.489-38.445-80.153-83.363-80.153c-44.417,0-80.744,34.87-83.292,78.661c4.475-0.644,9.022-1.092,13.676-1.092 C138.801,106.336,161.881,116.39,179.006,132.655z"/> <path style="fill:#9ca3af;" d="M277.507,125.03c-5.096,38.015-32.597,68.965-68.786,79.121 c-0.537,22.012-8.485,42.222-21.546,58.129c14.989,14.249,35.199,23.062,57.467,23.062c46.064,0,83.536-37.472,83.536-83.536 C328.178,167.406,307.27,137.817,277.507,125.03z"/> </g> </g> </g>
</svg>